<svg xmlns="http://www.w3.org/2000/svg" xmlns:xlink="http://www.w3.org/1999/xlink" version="1.1" x="20px" y="20px" viewBox="0 0 100 100" enable-background="new 0 0 100 100" xml:space="preserve"><path d="M50,10.917c-21.584,0-39.083,17.499-39.083,39.083S28.416,89.083,50,89.083S89.083,71.584,89.083,50  S71.584,10.917,50,10.917z M71.105,53H53v18.105c0,1.657-1.343,3-3,3s-3-1.343-3-3V53H28.895c-1.657,0-3-1.343-3-3s1.343-3,3-3H47  V28.895c0-1.657,1.343-3,3-3s3,1.343,3,3V47h18.105c1.657,0,3,1.343,3,3S72.763,53,71.105,53z"/></svg>